# xmcd
#
# Track frame offsets: 
#        182
#        12427
#        26315
#        38720
#        51095
#        66985
#        81140
#        96625
#        109215
#        121095
#        135420
#        147632
#        161327
#        174175
#        189450
#        206362
#
# Disc length: 2909 seconds
#
# Revision: 1
# Processed by: cddbd v1.5.2PL0 Copyright (c) Steve Scherf et al.
# Submitted via: ExactAudioCopyFreeDBPlugin 1.0
#
DISCID=d40b5b10
DTITLE=Various Artist - Country Fun
DYEAR=1999
DGENRE=Country
TTITLE0=Hank Williams, Jr. - Born to Boogie
TTITLE1=Junior Brown - My Wife Thinks You're Dead
TTITLE2=Mila Manson - That's Enough of That
TTITLE3=Ty England - Should've Asked Her Faster
TTITLE4=Kathy Mattea - Walking Away a Winner
TTITLE5=Jeff Foxworthy (with special guest Little Texas) - Party All N
TTITLE5=ight
TTITLE6=Boy Howdy - They Don't Make Them Like That Anymore
TTITLE7=Daryle Singletary - Too Much Fun
TTITLE8=Bill Engvall (with special guest Travis Tritt) - Here's Your S
TTITLE8=ign (Get The Picture)
TTITLE9=Anita Cochran - I Could Love A Man Like That
TTITLE10=Randy Travis - Better Class of Losers
TTITLE11=John Anderson - Money In The Bank
TTITLE12=Shenandoah - If Bubba Can Dance (I Can Too)
TTITLE13=The Desert Rose Band - One Step Forward
TTITLE14=Highway 101 - (Do You Love Me) Just Say Yes
TTITLE15=Victoria Shaw - Waikiki Cowboy
EXTD=
EXTT0=
EXTT1=
EXTT2=
EXTT3=
EXTT4=
EXTT5=
EXTT6=
EXTT7=
EXTT8=
EXTT9=
EXTT10=
EXTT11=
EXTT12=
EXTT13=
EXTT14=
EXTT15=
PLAYORDER=
